<?xml version="1.0" encoding="UTF-8"?>
<svg id="Layer_1" data-name="Layer 1" xmlns="http://www.w3.org/2000/svg" viewBox="0 0 2000 600">
  <defs>
    <style>
      .cls-1 {
        fill: #000;
      }

      .cls-1, .cls-2 {
        stroke-width: 0px;
      }

      .cls-2 {
        fill: #bcfe00;
      }
    </style>
  </defs>
  <rect class="cls-2" width="2000" height="600"/>
  <g>
    <path class="cls-1" d="M431.31,228.57l-69.3-120.03c-6.5-11.26-18.51-18.19-31.5-18.19h-178.64c-13,0-25.01,6.93-31.51,18.19l-69.3,120.03c-6.5,11.25-6.5,25.12,0,36.38l69.3,120.03c6.5,11.25,18.51,18.19,31.51,18.19h178.64c12.99,0,25-6.94,31.5-18.19l69.3-120.03c6.5-11.26,6.5-25.13,0-36.38ZM330.98,320.2h-43.41c-6.55,19.36-24.84,33.28-46.37,33.28s-39.86-13.92-46.37-33.28h-43.44v-31.28h43.44c6.51-19.35,24.82-33.28,46.37-33.28s39.83,13.93,46.37,33.28h43.41v31.28ZM330.98,169.06h-32.4c-13.76,0-26.8,5.25-36.72,14.77l-18.4,17.68h87.52v31.31h-179.58v-31.31h34.95c12.28-2.32,23.65-8.13,32.83-16.94l22.58-21.68c15.35-14.74,35.53-22.86,56.82-22.86h32.4v29.03ZM254.95,288.92c-3.64-3.29-8.48-5.22-13.74-5.22s-10.13,1.94-13.77,5.22c-4.36,3.81-7.09,9.39-7.09,15.64s2.74,11.83,7.09,15.64c3.64,3.3,8.48,5.23,13.77,5.23s10.1-1.94,13.74-5.23c4.38-3.81,7.12-9.39,7.12-15.64s-2.74-11.83-7.12-15.64Z"/>
    <g>
      <polygon class="cls-1" points="598.25 403.16 645.38 403.16 645.38 93.63 587.6 93.63 366.61 474.24 422.23 474.24 598.25 164.82 598.25 403.16"/>
      <path class="cls-1" d="M838.55,295.86c0,17.42-6.25,32.32-18.61,44.53-12.29,12.43-27.1,18.61-44.6,18.61s-32.09-6.18-44.53-18.61c-12.29-12.21-18.39-27.1-18.39-44.53V93.41h-47.13v202.46c0,30.45,10.72,56.37,32.24,77.88,21.59,21.44,47.58,32.24,77.81,32.24s56.44-10.8,77.88-32.24c21.67-21.52,32.46-47.43,32.46-77.88V93.41h-47.13v202.46Z"/>
      <polygon class="cls-1" points="967.49 403.16 1014.63 403.16 1014.63 140.54 1080.15 140.54 1080.15 93.63 901.97 93.63 901.97 140.54 967.49 140.54 967.49 403.16"/>
      <path class="cls-1" d="M1544.39,223.86h-104.49c4.36-20.29,14.26-38.26,29.85-53.91,21.6-21.74,47.74-32.61,78.34-32.61,14.97,0,29.41,2.9,43.25,8.85l18.17-43.48c-19.51-8.27-39.99-12.35-61.43-12.35-43.56,0-80.79,15.41-111.62,46.31-24.94,24.89-39.61,54.02-44.41,87.19h-16.04c-4.8-33.18-19.47-62.31-44.41-87.19-30.82-30.9-68.06-46.31-111.62-46.31s-80.71,15.41-111.61,46.31c-30.82,30.83-46.25,68.06-46.25,111.62s15.42,80.71,46.25,111.61c30.9,30.82,68.13,46.31,111.61,46.31s80.8-15.49,111.62-46.31c25.37-25.37,40.12-55.02,44.65-88.9h15.55c4.48,33.5,18.96,62.88,43.81,88.06,25.19,25.5,57.73,41.98,93.35,46.05,28.36,3.24,55.39-.69,80.91-11.49l14.29-6.02v-83.93c0-44.08-35.73-79.81-79.79-79.81ZM1298.34,326.54c-21.6,21.66-47.74,32.47-78.34,32.47s-56.66-10.8-78.25-32.47c-21.66-21.59-32.47-47.72-32.47-78.25s10.8-56.66,32.47-78.34c21.59-21.59,47.72-32.47,78.25-32.47s56.74,10.88,78.34,32.47c15.59,15.65,25.5,33.62,29.85,53.91h-74.64v-31.28l-96.41,55.67,96.41,55.67v-32.92h75.04c-4.15,20.96-14.24,39.51-30.26,55.54ZM1577.06,355.35c-9.39,2.46-19.07,3.66-28.96,3.66-30.61,0-56.74-10.8-78.34-32.47-16.02-16.04-26.11-34.58-30.26-55.54h101.88c19.7,0,35.69,15.97,35.69,35.67v48.68Z"/>
      <path class="cls-1" d="M1907.5,136.67c-30.9-30.9-68.05-46.31-111.61-46.31s-80.8,15.41-111.62,46.31c-30.82,30.83-46.31,68.06-46.31,111.62s15.49,80.71,46.31,111.61c30.82,30.82,68.06,46.31,111.62,46.31s80.71-15.49,111.61-46.31c30.82-30.9,46.31-68.05,46.31-111.61s-15.49-80.79-46.31-111.62ZM1874.22,326.54c-21.66,21.66-47.74,32.47-78.33,32.47s-56.66-10.8-78.34-32.47c-21.59-21.59-32.39-47.72-32.39-78.25s10.8-56.66,32.39-78.34c21.68-21.59,47.74-32.47,78.34-32.47s56.66,10.88,78.33,32.47c21.59,21.68,32.39,47.74,32.39,78.34s-10.8,56.66-32.39,78.25Z"/>
      <polygon class="cls-1" points="623.49 502.6 608.62 502.6 608.62 466.19 614.59 466.19 614.59 460.12 594.73 460.12 594.73 466.19 601.01 466.19 601.01 502.6 594.73 502.6 594.73 508.67 630.33 508.67 630.33 486.08 623.49 486.08 623.49 502.6"/>
      <path class="cls-1" d="M663.98,478.88c-3.49-3.3-7.67-4.94-12.53-4.94s-9.14,1.67-12.6,5.01c-3.44,3.34-5.16,7.62-5.16,12.83s1.71,9.49,5.11,12.85c3.41,3.35,7.63,5.02,12.65,5.02s9.08-1.64,12.56-4.95c3.48-3.3,5.22-7.6,5.22-12.91s-1.76-9.6-5.25-12.89ZM659.11,499.92c-2.06,2.15-4.61,3.24-7.67,3.24s-5.54-1.07-7.62-3.2c-2.09-2.14-3.12-4.87-3.12-8.2s1.01-5.92,3.03-8.11c2.03-2.19,4.6-3.29,7.71-3.29s5.53,1.07,7.62,3.21c2.09,2.15,3.15,4.88,3.15,8.19s-1.03,6.01-3.1,8.16Z"/>
      <path class="cls-1" d="M691.98,503.61c-3.35,0-5.91-1.21-7.68-3.65-1.77-2.43-2.65-5.24-2.65-8.43,0-3.42.93-6.18,2.79-8.29s4.28-3.16,7.26-3.16c2.23,0,4.19.65,5.88,1.95,1.68,1.31,2.68,3.18,2.98,5.62h5.93v-12.78h-5.93v2.38c-2.58-2.21-5.75-3.32-9.49-3.32-4.37,0-8.24,1.66-11.59,4.97-3.35,3.32-5.03,7.52-5.03,12.62,0,4.77,1.54,8.98,4.61,12.64,3.07,3.65,7.29,5.48,12.64,5.48,7.56,0,12.86-3.36,15.88-10.09l-5.48-2.58c-2.09,4.42-5.47,6.63-10.12,6.63Z"/>
      <path class="cls-1" d="M740.52,502.78v-15.64c0-2.75-.15-4.75-.47-6-.31-1.26-.92-2.43-1.82-3.52-.92-1.08-2.29-1.96-4.14-2.66-1.86-.68-4.05-1.02-6.58-1.02-6.92,0-11.77,2.62-14.6,7.88l6.36,1.68c1.49-2.66,3.9-3.99,7.23-3.99,1.92,0,3.49.38,4.69,1.12,1.2.75,1.96,1.58,2.29,2.51.32.93.48,2.25.48,3.99v3.35c-2.95-1.91-6.01-2.87-9.18-2.87-3.39,0-6.29,1.03-8.71,3.11-2.39,2.08-3.6,4.67-3.6,7.82s1.13,5.68,3.4,7.68c2.27,2,4.94,3.01,8.01,3.01,3.96,0,7.54-1.57,10.75-4.67v4.11h11.59v-5.9h-5.69ZM733.96,500.05c-2.87,2.7-5.9,4.05-9.11,4.05-1.87,0-3.34-.53-4.42-1.62-1.08-1.07-1.62-2.38-1.62-3.97,0-1.69.61-3.08,1.85-4.15,1.24-1.07,2.76-1.6,4.61-1.6,2.93,0,5.82,1.12,8.69,3.35v3.95Z"/>
      <path class="cls-1" d="M760.32,463.61l-6.63,6.07v5.2h-4.4v5.9h4.4v16.75c0,3.3.16,5.63.49,6.98.33,1.35,1.12,2.47,2.37,3.37,1.26.89,2.9,1.35,4.92,1.35,1.7,0,3.4-.31,5.09-.91v-6.04c-1.19.47-2.4.7-3.63.7-1.16,0-1.89-.31-2.18-.93-.29-.61-.44-2.24-.44-4.86v-16.4h6.25v-5.9h-6.25v-11.27Z"/>
      <polygon class="cls-1" points="782.9 474.88 771.03 474.88 771.03 480.78 776.27 480.78 776.27 502.77 771.03 502.77 771.03 508.67 788.14 508.67 788.14 502.77 782.9 502.77 782.9 474.88"/>
      <path class="cls-1" d="M782.17,466.24c.79-.78,1.19-1.72,1.19-2.84s-.4-2.06-1.19-2.83c-.79-.76-1.73-1.15-2.83-1.15-1.16,0-2.12.39-2.88,1.19s-1.13,1.72-1.13,2.79.39,2.04,1.17,2.83c.78.79,1.73,1.19,2.84,1.19s2.04-.39,2.83-1.17Z"/>
      <path class="cls-1" d="M822.58,478.88c-3.49-3.3-7.67-4.94-12.53-4.94s-9.14,1.67-12.6,5.01c-3.44,3.34-5.16,7.62-5.16,12.83s1.69,9.49,5.11,12.85c3.41,3.35,7.63,5.02,12.65,5.02s9.08-1.64,12.56-4.95c3.48-3.3,5.21-7.6,5.21-12.91s-1.74-9.6-5.23-12.89ZM817.72,499.92c-2.06,2.15-4.61,3.24-7.67,3.24s-5.54-1.07-7.62-3.2c-2.09-2.14-3.12-4.87-3.12-8.2s1.01-5.92,3.03-8.11c2.03-2.19,4.6-3.29,7.71-3.29s5.51,1.07,7.62,3.21c2.09,2.15,3.13,4.88,3.13,8.19s-1.02,6.01-3.08,8.16Z"/>
      <path class="cls-1" d="M865.59,486.29c0-2.89-.22-5.08-.67-6.58-.44-1.5-1.38-2.77-2.81-3.8-1.43-1.03-3.24-1.56-5.43-1.56-3.52,0-7.4,1.54-11.66,4.61v-4.09h-12.57v5.9h5.93v21.99h-5.93v5.9h18.39v-5.9h-5.83v-18.08c3.7-2.86,7.02-4.29,9.95-4.29,1.12,0,2.06.39,2.83,1.17.77.78,1.15,2.44,1.15,5v22.1h12.32v-5.9h-5.69v-16.48Z"/>
      <path class="cls-1" d="M927.82,502.78v-42.65h-13.13v5.9h6.5v13.37c-3.4-3.64-7.37-5.45-11.93-5.45-4.3,0-8.16,1.6-11.59,4.81s-5.13,7.6-5.13,13.16,1.67,9.81,4.99,12.81c3.32,2.99,7.2,4.51,11.59,4.51,4.75,0,8.78-1.85,12.07-5.53v4.97h12.71v-5.9h-6.08ZM917.89,500.16c-2.19,2.11-4.71,3.17-7.55,3.17s-5.45-1.01-7.55-3.01c-2.11-2-3.16-4.87-3.16-8.58,0-3.29,1.02-6.05,3.07-8.29,2.05-2.25,4.57-3.38,7.57-3.38,2.8,0,5.31.96,7.57,2.87,2.24,1.91,3.36,4.73,3.36,8.48s-1.1,6.64-3.3,8.74Z"/>
      <polygon class="cls-1" points="1015.26 480.78 1019.95 480.78 1012.66 499.94 1005.38 480.78 1009.78 480.78 1009.78 474.88 992.78 474.88 992.78 480.78 998.74 480.78 1009.79 509.23 1015.8 509.23 1026.58 480.78 1031.77 480.78 1031.77 474.88 1015.26 474.88 1015.26 480.78"/>
      <path class="cls-1" d="M1062.17,478.88c-3.49-3.3-7.67-4.94-12.53-4.94s-9.16,1.67-12.6,5.01c-3.45,3.34-5.17,7.62-5.17,12.83s1.71,9.49,5.12,12.85c3.41,3.35,7.63,5.02,12.65,5.02s9.07-1.64,12.56-4.95c3.48-3.3,5.21-7.6,5.21-12.91s-1.74-9.6-5.23-12.89ZM1057.3,499.92c-2.06,2.15-4.61,3.24-7.67,3.24s-5.54-1.07-7.62-3.2c-2.09-2.14-3.13-4.87-3.13-8.2s1.02-5.92,3.04-8.11c2.03-2.19,4.6-3.29,7.71-3.29s5.51,1.07,7.62,3.21c2.09,2.15,3.13,4.88,3.13,8.19s-1.02,6.01-3.08,8.16Z"/>
      <path class="cls-1" d="M1083.6,466.24c.79-.78,1.19-1.72,1.19-2.84s-.4-2.06-1.19-2.83c-.79-.76-1.73-1.15-2.83-1.15-1.16,0-2.12.39-2.88,1.19s-1.13,1.72-1.13,2.79.39,2.04,1.17,2.83c.78.79,1.73,1.19,2.84,1.19s2.04-.39,2.83-1.17Z"/>
      <polygon class="cls-1" points="1084.33 474.88 1072.47 474.88 1072.47 480.78 1077.7 480.78 1077.7 502.77 1072.47 502.77 1072.47 508.67 1089.57 508.67 1089.57 502.77 1084.33 502.77 1084.33 474.88"/>
      <path class="cls-1" d="M1104.2,463.61l-6.63,6.07v5.2h-4.4v5.9h4.4v16.75c0,3.3.16,5.63.49,6.98.33,1.35,1.12,2.47,2.37,3.37,1.26.89,2.9,1.35,4.92,1.35,1.7,0,3.4-.31,5.09-.91v-6.04c-1.19.47-2.4.7-3.63.7-1.16,0-1.89-.31-2.18-.93-.29-.61-.44-2.24-.44-4.86v-16.4h6.25v-5.9h-6.25v-11.27Z"/>
      <path class="cls-1" d="M1146.29,474.88h-12.6v5.9h5.97v18.29c-3.49,2.93-6.77,4.4-9.84,4.4-1.03,0-1.88-.28-2.55-.84-.68-.56-1.08-1.27-1.22-2.13-.14-.87-.21-2.54-.21-5.02v-20.6h-11.41v5.9h4.78v15.53c0,3.49.24,6.02.73,7.59.49,1.57,1.47,2.85,2.95,3.84,1.48.99,3.34,1.48,5.6,1.48,3.56,0,7.28-1.48,11.17-4.44v3.88h12.46v-5.9h-5.83v-27.89Z"/>
      <path class="cls-1" d="M1173.82,474.99c-1.48.41-2.88,1.28-4.21,2.58s-2.36,2.94-3.11,4.92v-7.61h-12.11v5.9h6.81v21.99h-6.81v5.9h20.8v-5.9h-7.37v-7.44c0-4.6.4-7.8,1.2-9.58.8-1.78,2.04-3.01,3.7-3.69,1.67-.68,4.18-1.01,7.56-1.01h1.32v-6.7h-1.75c-2.56,0-4.58.21-6.05.63Z"/>
      <path class="cls-1" d="M1200.54,503.92c-3.2,0-5.81-.97-7.86-2.89-2.05-1.94-3.27-4.46-3.69-7.58h28.4c-.14-6.47-2.05-11.34-5.73-14.61-3.69-3.27-7.81-4.9-12.34-4.9s-8.74,1.67-12.3,5.02c-3.58,3.36-5.36,7.63-5.36,12.81,0,5.48,1.83,9.82,5.5,13.04,3.67,3.22,8.07,4.83,13.25,4.83,3.32,0,6.51-.71,9.56-2.14,3.04-1.44,5.51-3.63,7.43-6.58l-5.86-2.59c-2.7,3.73-6.37,5.59-10.99,5.59ZM1192.68,481.91c1.88-1.73,4.15-2.6,6.8-2.6,2.92,0,5.36.96,7.37,2.88,2,1.92,3.24,4.06,3.69,6.44h-21.32c.42-2.75,1.57-4.99,3.45-6.72Z"/>
      <path class="cls-1" d="M952.79,503.92c-3.2,0-5.81-.97-7.86-2.89-2.05-1.94-3.27-4.46-3.69-7.58h28.4c-.14-6.47-2.05-11.34-5.73-14.61-3.69-3.27-7.81-4.9-12.34-4.9s-8.74,1.67-12.3,5.02c-3.58,3.36-5.36,7.63-5.36,12.81,0,5.48,1.83,9.82,5.5,13.04,3.67,3.22,8.07,4.83,13.25,4.83,3.32,0,6.51-.71,9.55-2.14,3.06-1.44,5.53-3.63,7.44-6.58l-5.86-2.59c-2.7,3.73-6.37,5.59-10.99,5.59ZM944.93,481.91c1.88-1.73,4.15-2.6,6.8-2.6,2.92,0,5.36.96,7.37,2.88,2,1.92,3.22,4.06,3.69,6.44h-21.32c.42-2.75,1.57-4.99,3.45-6.72Z"/>
      <rect class="cls-1" x="1263.91" y="490.51" width="689.9" height="8.61"/>
      <rect class="cls-1" x="1223.53" y="501.89" width="6.78" height="6.78"/>
      <polygon class="cls-1" points="457.97 474.27 513.59 474.27 554.02 403.16 499.22 403.16 457.97 474.27"/>
    </g>
  </g>
</svg>