<?xml version="1.0" encoding="UTF-8"?>
<svg id="Layer_1" data-name="Layer 1" xmlns="http://www.w3.org/2000/svg" viewBox="0 0 600 600">
  <defs>
    <style>
      .cls-1 {
        fill: #000;
      }

      .cls-1, .cls-2 {
        stroke-width: 0px;
      }

      .cls-2 {
        fill: #bcfe00;
      }
    </style>
  </defs>
  <rect class="cls-1" x="-1.3" width="601.89" height="600"/>
  <path class="cls-2" d="M584.19,272.81l-103.59-179.41c-9.71-16.83-27.66-27.19-47.08-27.19H166.5c-19.44,0-37.39,10.36-47.1,27.19L15.81,272.81c-9.71,16.81-9.71,37.54,0,54.37l103.59,179.41c9.71,16.81,27.66,27.19,47.1,27.19h267.03c19.42,0,37.37-10.38,47.08-27.19l103.59-179.41c9.71-16.83,9.71-37.56,0-54.37ZM434.23,409.77h-64.88c-9.79,28.94-37.12,49.75-69.32,49.75s-59.59-20.81-69.32-49.75h-64.94v-46.76h64.94c9.73-28.92,37.11-49.75,69.32-49.75s59.53,20.83,69.32,49.75h64.88v46.76ZM434.23,183.85h-48.43c-20.56,0-40.06,7.84-54.89,22.08l-27.51,26.42h130.83v46.8H165.79v-46.8h50.12c1.41,0,2.82-.12,4.19-.42,17.56-3.71,33.8-12.23,47-24.91l33.75-32.4c22.94-22.03,53.12-34.17,84.93-34.17h48.43v43.39ZM320.57,363.02c-5.44-4.91-12.68-7.81-20.54-7.81s-15.14,2.89-20.58,7.81c-6.51,5.69-10.6,14.03-10.6,23.38s4.09,17.69,10.6,23.38c5.44,4.93,12.68,7.82,20.58,7.82s15.1-2.89,20.54-7.82c6.55-5.69,10.64-14.03,10.64-23.38s-4.09-17.69-10.64-23.38Z"/>
</svg>